HIERARCHY
ROOT Hips
{
  OFFSET 0 0 0
  CHANNELS 6 Xposition Yposition Zposition Zrotation Xrotation Yrotation
  JOINT Spine
  {
    OFFSET 0 10.1816 0.131521
    CHANNELS 3 Zrotation Xrotation Yrotation
    JOINT Spine1
    {
      OFFSET 0 10.0835 -1.0008
      CHANNELS 3 Zrotation Xrotation Yrotation
      JOINT Spine2
      {
        OFFSET 0 9.10001 -1.37342
        CHANNELS 3 Zrotation Xrotation Yrotation
        JOINT Neck
        {
          OFFSET 0 16.6717 -2.51617
          CHANNELS 3 Zrotation Xrotation Yrotation
          JOINT Head
          {
            OFFSET 0 9.61788 1.68501
            CHANNELS 3 Zrotation Xrotation Yrotation
            End Site
            {
              OFFSET 0 0 0
            }
          }
        }
        JOINT LeftShoulder
        {
          OFFSET 4.57045 10.946 -2.62799
          CHANNELS 3 Zrotation Xrotation Yrotation
          JOINT LeftArm
          {
            OFFSET 10.5924 -0.524583 -2.23212
            CHANNELS 3 Zrotation Xrotation Yrotation
            JOINT LeftForeArm
            {
              OFFSET 27.8415 -8.94286e-05 3.74589e-05
              CHANNELS 3 Zrotation Xrotation Yrotation
              JOINT LeftHand
              {
                OFFSET 28.3288 -1.74407e-05 3.78045e-05
                CHANNELS 3 Zrotation Xrotation Yrotation
                End Site
                {
                  OFFSET 0 0 0
                }
              }
            }
          }
        }
        JOINT RightShoulder
        {
          OFFSET -4.56997 10.9462 -2.62802
          CHANNELS 3 Zrotation Xrotation Yrotation
          JOINT RightArm
          {
            OFFSET -10.5928 -0.524798 -2.2321
            CHANNELS 3 Zrotation Xrotation Yrotation
            JOINT RightForeArm
            {
              OFFSET -27.8415 -3.30792e-05 1.16763e-05
              CHANNELS 3 Zrotation Xrotation Yrotation
              JOINT RightHand
              {
                OFFSET -28.3288 0 5.5816e-05
                CHANNELS 3 Zrotation Xrotation Yrotation
                End Site
                {
                  OFFSET 0 0 0
                }
              }
            }
          }
        }
      }
    }
  }
  JOINT LeftUpLeg
  {
    OFFSET 8.20778 -6.75171 -1.59956
    CHANNELS 3 Zrotation Xrotation Yrotation
    JOINT LeftLeg
    {
      OFFSET 0 -44.3705 0.284643
      CHANNELS 3 Zrotation Xrotation Yrotation
      JOINT LeftFoot
      {
        OFFSET 0 -44.4279 -2.98219
        CHANNELS 3 Zrotation Xrotation Yrotation
        JOINT LeftToeBase
        {
          OFFSET 0 -8.72867 10.7106
          CHANNELS 3 Zrotation Xrotation Yrotation
          End Site
          {
            OFFSET 0 0 0
          }
        }
      }
    }
  }
  JOINT RightUpLeg
  {
    OFFSET -8.2078 -6.75166 -1.59956
    CHANNELS 3 Zrotation Xrotation Yrotation
    JOINT RightLeg
    {
      OFFSET 0 -44.3705 0.286156
      CHANNELS 3 Zrotation Xrotation Yrotation
      JOINT RightFoot
      {
        OFFSET 0 -44.4277 -2.98379
        CHANNELS 3 Zrotation Xrotation Yrotation
        JOINT RightToeBase
        {
          OFFSET 0 -8.72867 10.7106
          CHANNELS 3 Zrotation Xrotation Yrotation
          End Site
          {
            OFFSET 0 0 0
          }
        }
      }
    }
  }
}
MOTION
Frames:	11
Frame Time:	0.0333333
294.152 94.5668 88.9331 5.44462 2.79386 -175.172 1.54613 1.93798 -1.6745 3.15097 3.82923 -3.40362 3.15097 3.82921 -3.40363 6.05871 -1.04675 -3.36581 -4.05075 -4.94439 -1.29309 -9.94987 0.454401 0.259337 -45.8764 17.9316 -45.0649 1.10575 -3.85197 -85.6564 12.6237 23.1767 -8.22973 15.081 -1.52439 -10.327 58.5652 38.8294 -17.6743 -13.5185 -10.3115 33.4549 -9.21413 6.42654 -0.951917 4.98747 9.99849 5.30377 2.81303 44.9349 -0.667998 -6.27721 3.07772 1.36729 -8.00747e-07 -4.64885e-06 1.17336e-05 2.16204 -31.244 -6.37866 5.6585 42.7341 -7.55643 -2.73016 -8.58747 -2.6386 -8.19291e-07 1.36546e-06 1.00857e-05 
293.998 95.2591 85.1874 5.56864 3.08407 -175.046 1.73386 2.01177 -1.40829 3.5199 3.97936 -2.8795 3.51989 3.97937 -2.87949 6.19317 -0.944503 -3.12887 -4.61839 -4.69262 -0.907203 -11.1702 0.232067 1.67922 -48.0512 21.6455 -38.6058 1.07744 -3.71501 -86.3125 12.6373 22.9751 -7.92225 16.264 -1.60901 -10.3488 57.7975 36.1502 -12.8499 -14.3883 -10.1661 31.3976 -10.0856 4.92736 -2.11411 5.57478 3.50486 4.69776 3.59364 56.9954 -0.603936 -4.50175 10.1551 2.22814 -8.00747e-07 -4.64885e-06 1.17336e-05 2.32648 -28.1159 -5.82919 6.43197 42.4039 -8.17334 -2.1937 -11.2551 -2.75391 -8.19291e-07 1.36546e-06 1.00857e-05 
293.792 96.4317 81.5913 5.25291 3.34529 -175.329 1.76386 2.08258 -0.97119 3.56623 4.13391 -2.00809 3.56624 4.13392 -2.00807 6.2846 -0.331121 -2.86169 -4.90311 -5.09985 -0.554117 -11.958 -0.0160996 3.07271 -50.0255 26.2822 -31.6227 1.24008 -5.01053 -84.1629 10.9769 30.04 -7.50041 17.4194 -1.56399 -9.82379 57.4539 34.861 -8.34638 -14.2382 -9.77887 30.662 -12.3501 3.46695 -3.17339 5.86976 -2.95298 4.94477 4.70073 66.2414 -1.23191 -4.40885 8.13165 2.57807 -8.00747e-07 -4.64885e-06 1.17336e-05 2.41903 -24.1016 -4.50204 6.87713 40.0319 -8.59492 -1.87533 -12.522 -2.98409 -8.19291e-07 1.36546e-06 1.00857e-05 
293.479 97.9019 77.9295 4.48083 3.59272 -175.944 1.67345 2.15556 -0.439513 3.36691 4.29718 -0.942904 3.36693 4.29717 -0.942912 5.50452 0.0146509 -2.49526 -4.0864 -5.0095 -0.493751 -13.0551 -0.247492 4.25711 -51.1745 31.5872 -24.7953 1.91441 -7.56612 -79.3605 11.975 38.9817 -7.84947 17.1408 -1.38793 -9.14173 58.1788 36.1813 -3.92557 -14.3542 -9.98191 30.982 -11.8925 4.03943 -4.45787 5.82923 -9.26034 6.2829 6.17016 72.1005 -2.12141 -3.25787 5.70501 2.84262 -8.00747e-07 -4.64885e-06 1.17336e-05 1.96051 -19.3355 -3.73328 6.65418 36.2688 -8.02425 -1.63461 -12.902 -2.91445 -8.19291e-07 1.36546e-06 1.00857e-05 
293.123 99.1705 74.2714 3.57915 3.31511 -176.674 1.47869 2.13579 0.115951 2.95618 4.27386 0.176816 2.95616 4.27387 0.176818 4.63403 0.158597 -2.51766 -3.66102 -5.32046 -0.799773 -13.9876 -0.557896 5.73222 -52.349 36.9345 -18.655 3.53603 -10.6449 -72.3993 15.8661 42.8826 -8.59421 16.5758 -1.17551 -8.34739 57.9547 39.7149 0.488365 -14.3734 -10.8211 33.0775 -12.4441 5.6086 -3.7921 5.95615 -15.482 7.82988 5.73626 74.3735 -0.905966 -3.82181 5.68304 3.50149 -8.00747e-07 -4.64885e-06 1.17336e-05 1.22952 -15.1135 -3.28517 6.15253 32.353 -7.09683 -1.25129 -12.9589 -2.69539 -8.19291e-07 1.36546e-06 1.00857e-05 
292.831 100.186 70.5011 2.9138 2.99867 -177.407 1.32237 2.1272 0.664021 2.62268 4.26902 1.28006 2.6227 4.26901 1.28003 2.97241 -0.0743376 -2.33909 -2.11897 -5.74853 -1.29535 -14.2854 -0.743898 6.59924 -55.4461 39.8771 -11.9497 5.98638 -12.7807 -64.0727 16.989 40.6503 -8.53276 16.0297 -0.885092 -7.15993 56.2852 42.8608 4.89437 -14.3018 -12.2815 36.6701 -12.5522 9.24003 -1.79395 6.27166 -20.9238 9.89202 5.45053 73.7835 0.0527432 -2.37562 4.89962 3.81647 -8.00747e-07 -4.64885e-06 1.17336e-05 0.806285 -10.8886 -2.73709 5.56004 28.2613 -6.30192 -0.780912 -12.8267 -2.56444 -8.19291e-07 1.36546e-06 1.00857e-05 
292.46 100.744 66.7615 2.16761 2.60381 -178.112 1.09938 2.17311 1.20112 2.15523 4.3684 2.36284 2.15525 4.36839 2.36284 1.48628 -0.925576 -2.42001 -1.37101 -6.51365 -1.86755 -14.7944 -0.910503 7.31059 -57.48 40.7666 -6.54101 8.48004 -13.4105 -55.8832 13.1845 32.9149 -1.77213 14.6526 -0.590079 -6.0009 54.122 44.4845 9.63724 -13.2913 -13.7171 41.8729 -11.8297 14.6386 -0.614128 6.5412 -25.7392 10.8748 2.22971 70.6358 3.43772 -3.16814 5.08326 4.08873 -8.00747e-07 -4.64885e-06 1.17336e-05 -0.0812508 -7.38356 -2.87915 5.21343 25.2988 -5.43287 -0.322829 -12.9887 -2.21616 -8.19291e-07 1.36546e-06 1.00857e-05 
292.15 100.867 63.1696 2.01399 2.33556 -178.495 0.974255 2.30215 1.65818 1.88369 4.63122 3.28094 1.88368 4.63122 3.28094 0.47001 -1.84589 -2.49966 -0.611852 -6.90526 -2.30417 -15.0763 -1.03146 7.82554 -57.8975 40.5284 -2.94132 10.1351 -12.2563 -48.0029 11.6649 23.2174 5.00105 14.0276 -0.352562 -4.91758 50.4931 43.8142 14.243 -11.477 -14.8845 48.36 -10.5633 20.128 0.927084 7.41214 -29.5404 11.6358 -0.328448 65.1481 5.41487 -3.2353 3.71196 3.78822 -8.00747e-07 -4.64885e-06 1.17336e-05 -0.490679 -4.16069 -2.61717 5.48852 22.9025 -5.22279 -0.0706492 -13.4928 -2.12463 -8.19291e-07 1.36546e-06 1.00857e-05 
291.797 100.735 59.5527 1.77541 2.55325 -178.235 0.822419 2.57233 1.96496 1.55832 5.17114 3.89867 1.55832 5.17113 3.89866 -0.160427 -2.18431 -2.74623 -0.00644361 -8.12568 -2.78915 -14.4579 -1.06836 8.13414 -57.1258 41.6038 -2.07798 11.5627 -10.2341 -38.6178 9.86809 13.4984 10.5058 13.4241 -0.172466 -4.06108 47.1299 41.4798 18.3078 -9.15589 -15.1526 54.9239 -10.2119 23.57 1.83921 7.54969 -31.669 11.3342 -2.10348 56.8479 6.91317 -2.80145 4.07336 3.79993 -8.00747e-07 -4.64885e-06 1.17336e-05 -0.966476 -0.309109 -2.5645 5.74452 20.5247 -5.13543 0.165694 -14.433 -2.14139 -8.19291e-07 1.36546e-06 1.00857e-05 
291.374 100.422 55.9565 1.6227 2.63723 -177.52 0.673875 2.80864 2.1692 1.24294 5.64063 4.31296 1.24294 5.64063 4.31296 -0.0535266 -2.02855 -3.1685 0.0557763 -9.17066 -3.20506 -14.4533 -0.996546 7.78948 -54.7753 42.0491 -2.24253 11.8885 -7.63369 -29.6044 7.30037 7.77833 13.5754 13.0626 -0.0829219 -3.6187 44.4176 38.1268 21.4889 -7.00824 -14.7124 60.6468 -10.3283 26.8078 2.64286 6.83523 -32.2861 10.6137 -2.01545 45.3459 6.594 -2.4481 4.94997 3.8092 -8.00747e-07 -4.64885e-06 1.17336e-05 -1.16183 3.45635 -1.60184 6.0761 17.9207 -5.84031 0.346316 -15.3102 -2.71831 -8.19291e-07 1.36546e-06 1.00857e-05 
290.932 99.9705 52.3852 1.61411 2.45902 -176.46 0.578717 2.97311 2.25531 1.04175 5.96656 4.48955 1.04175 5.96655 4.48956 -0.449535 -1.61499 -3.35941 0.869253 -9.62892 -3.6035 -14.2524 -0.826739 7.00726 -53.3077 40.817 -2.00597 11.5944 -5.45384 -22.0914 1.90426 9.49731 16.0059 12.6245 -0.0365908 -3.38899 43.2251 33.9418 23.1517 -5.20952 -13.765 65.3854 -9.20388 27.6301 2.87087 5.82356 -31.6615 9.30288 -1.78492 31.3074 5.68628 -3.88097 7.14131 3.75515 -8.00747e-07 -4.64885e-06 1.17336e-05 -1.04297 6.684 -0.597742 6.2628 15.7717 -6.78609 0.516675 -16.0506 -3.47563 -8.19291e-07 1.36546e-06 1.00857e-05 
